<svg width="24" height="24" viewBox="0 0 24 24" fill="none" xmlns="http://www.w3.org/2000/svg">
<g clip-path="url(#clip0)">
<path d="M21.4288 0H2.57123C1.8893 0 1.2353 0.270897 0.753097 0.753097C0.270897 1.2353 0 1.8893 0 2.57123L0 21.428C0 22.1099 0.270897 22.7639 0.753097 23.2461C1.2353 23.7283 1.8893 23.9992 2.57123 23.9992H9.92366V15.8396H6.54916V11.9996H9.92444V9.07259C9.92444 5.74276 11.9064 3.90034 14.94 3.90034C15.9376 3.91403 16.9329 4.00073 17.9179 4.15974V7.42766H16.2416C15.9562 7.38986 15.6658 7.41673 15.3921 7.50629C15.1184 7.59585 14.8684 7.74581 14.6605 7.94507C14.4526 8.14433 14.2921 8.38778 14.191 8.65742C14.0899 8.92707 14.0507 9.21599 14.0763 9.50282V11.9996H17.7596L17.1703 15.8396H14.0748V24H21.4272C22.1091 24 22.7631 23.7291 23.2453 23.2469C23.7275 22.7647 23.9984 22.1107 23.9984 21.4288V2.57123C23.9984 1.8893 23.7275 1.2353 23.2453 0.753097C22.7631 0.270897 22.1091 0 21.4272 0H21.4288Z" fill="white"/>
</g>
<defs>
<clipPath id="clip0">
<rect width="24" height="24" fill="white"/>
</clipPath>
</defs>
</svg>
