<svg width="24" height="24" viewBox="0 0 24 24" fill="none" xmlns="http://www.w3.org/2000/svg">
<g clip-path="url(#clip0)">
<path d="M12.0022 5.84492C10.7855 5.84492 9.5962 6.20571 8.58458 6.88165C7.57296 7.55759 6.7845 8.51833 6.31891 9.64238C5.85331 10.7664 5.73149 12.0033 5.96885 13.1966C6.20621 14.3899 6.79209 15.486 7.6524 16.3463C8.51271 17.2066 9.60881 17.7925 10.8021 18.0298C11.9954 18.2672 13.2323 18.1454 14.3563 17.6798C15.4804 17.2142 16.4411 16.4257 17.117 15.4141C17.793 14.4025 18.1538 13.2131 18.1538 11.9965C18.155 11.1883 17.9967 10.3878 17.688 9.64092C17.3793 8.89402 16.9262 8.21538 16.3548 7.64391C15.7833 7.07244 15.1047 6.61937 14.3578 6.31066C13.6109 6.00196 12.8104 5.84369 12.0022 5.84492V5.84492ZM12.0022 15.9965C11.2112 15.9965 10.438 15.7619 9.78036 15.3225C9.12269 14.8831 8.6101 14.2585 8.30741 13.5277C8.00472 12.7969 7.92552 11.9928 8.07983 11.2171C8.23414 10.4413 8.61503 9.72869 9.17433 9.16939C9.73363 8.61009 10.4462 8.2292 11.222 8.07489C11.9978 7.92058 12.8019 7.99978 13.5326 8.30247C14.2634 8.60516 14.888 9.11775 15.3274 9.77542C15.7669 10.4331 16.0014 11.2063 16.0014 11.9973C15.9993 13.0573 15.5773 14.0733 14.8278 14.8229C14.0782 15.5724 13.0622 15.9944 12.0022 15.9965V15.9965ZM19.8409 5.59272C19.8409 5.87668 19.7566 6.15426 19.5988 6.39031C19.4409 6.62636 19.2166 6.81027 18.9542 6.91876C18.6917 7.02725 18.403 7.05543 18.1246 6.99975C17.8461 6.94407 17.5905 6.80702 17.39 6.60595C17.1894 6.40489 17.0531 6.14885 16.9982 5.87025C16.9432 5.59165 16.9722 5.30302 17.0814 5.04089C17.1906 4.77877 17.3751 4.55494 17.6116 4.39774C17.8481 4.24055 18.1259 4.15705 18.4099 4.15783C18.5981 4.15793 18.7844 4.19514 18.9583 4.26734C19.1321 4.33953 19.29 4.44529 19.4229 4.57856C19.5558 4.71184 19.6611 4.87001 19.7328 5.04403C19.8046 5.21805 19.8413 5.4045 19.8409 5.59272V5.59272ZM23.9137 7.04876C23.9532 5.18329 23.2568 3.37724 21.9752 2.02115C20.6164 0.74386 18.8122 0.0482039 16.9476 0.0826367C14.9668 -0.0301497 9.02903 -0.0301497 7.04744 0.0826367C5.18412 0.0464672 3.38056 0.740512 2.02218 2.01645C0.742443 3.37384 0.0459076 5.17888 0.0820951 7.04406C-0.0283416 9.02566 -0.0283416 14.9626 0.0820951 16.9442C0.0426171 18.8097 0.738983 20.6157 2.02061 21.9718C3.38159 23.2483 5.18732 23.9428 7.05292 23.9072C9.03373 24.02 14.9715 24.02 16.9531 23.9072C18.8185 23.9467 20.6246 23.2503 21.9807 21.9687C23.258 20.6099 23.9536 18.8057 23.9192 16.9411C24.028 14.9626 24.028 9.03036 23.9153 7.04955L23.9137 7.04876ZM21.3564 19.0691C21.1528 19.5853 20.8453 20.0541 20.4529 20.4464C20.0606 20.8388 19.5918 21.1463 19.0756 21.3499C17.4958 21.9765 13.7496 21.8316 12.003 21.8316C10.2564 21.8316 6.50387 21.971 4.93034 21.3499C4.41419 21.1463 3.9454 20.8388 3.55305 20.4464C3.1607 20.0541 2.85317 19.5853 2.64955 19.0691C2.02296 17.4893 2.16786 13.7431 2.16786 11.9965C2.16786 10.2499 2.02844 6.49736 2.64955 4.92384C2.85309 4.40776 3.16049 3.93901 3.5527 3.54667C3.94491 3.15433 4.41355 2.84676 4.92956 2.64304C6.50935 2.01645 10.2556 2.16135 12.0022 2.16135C13.7488 2.16135 17.5013 2.02194 19.0748 2.64304C19.591 2.84667 20.0598 3.1542 20.4521 3.54654C20.8445 3.93889 21.152 4.40769 21.3556 4.92384C21.9822 6.50363 21.8373 10.2499 21.8373 11.9965C21.8373 13.7431 21.983 17.4956 21.3564 19.0691Z" fill="white"/>
</g>
<defs>
<clipPath id="clip0">
<rect width="24" height="23.9945" fill="white"/>
</clipPath>
</defs>
</svg>
