<svg width="24" height="24" viewBox="0 0 24 24" fill="none" xmlns="http://www.w3.org/2000/svg">
<g clip-path="url(#clip0)">
<path d="M22.2861 0H1.70916C1.25285 0.00393406 0.816721 0.188605 0.496339 0.513541C0.175956 0.838477 -0.00254098 1.27717 -3.50009e-05 1.73349V22.2657C-0.00170933 22.7215 0.177156 23.1594 0.497449 23.4837C0.817742 23.8079 1.2534 23.9921 1.70916 23.9961H22.2861C22.7427 23.9934 23.1795 23.8097 23.5008 23.4853C23.8221 23.1609 24.0016 22.7223 24 22.2657V1.73349C24.0025 1.27636 23.8233 0.83696 23.5019 0.51189C23.1805 0.186819 22.7432 0.00269437 22.2861 0ZM7.25365 20.5714H3.69655V9.11726H7.25913V20.5714H7.25365ZM5.47471 7.55305C5.06676 7.55305 4.66797 7.43207 4.32877 7.20543C3.98958 6.97879 3.7252 6.65665 3.56909 6.27975C3.41297 5.90285 3.37213 5.48813 3.45171 5.08802C3.5313 4.68791 3.72775 4.32038 4.01621 4.03192C4.30467 3.74345 4.6722 3.54701 5.07231 3.46742C5.47242 3.38783 5.88715 3.42868 6.26404 3.5848C6.64094 3.74091 6.96308 4.00528 7.18972 4.34448C7.41637 4.68368 7.53734 5.08247 7.53734 5.49042C7.53713 6.0374 7.31975 6.56191 6.93298 6.94869C6.54621 7.33546 6.02169 7.55284 5.47471 7.55305V7.55305ZM20.5879 20.5714H17.03V14.9995C17.03 13.6673 17.0033 11.962 15.1821 11.962C13.3287 11.962 13.0442 13.4087 13.0442 14.9031V20.5706H9.48712V9.11726H12.8992V10.6846H12.9478C13.2903 10.101 13.7844 9.62104 14.3777 9.29568C14.9711 8.97032 15.6414 8.81171 16.3176 8.8367C19.9178 8.8367 20.5871 11.2097 20.5871 14.2958L20.5879 20.5714Z" fill="white"/>
</g>
<defs>
<clipPath id="clip0">
<rect width="24" height="24" fill="white"/>
</clipPath>
</defs>
</svg>
