<svg width="64" height="64" viewBox="0 0 64 64" fill="none" xmlns="http://www.w3.org/2000/svg">
<path d="M53.3333 41.3333C50 41.3333 46.8 40.8 43.8133 39.8133C43.5467 39.7333 43.2533 39.68 42.9867 39.68C42.2933 39.68 41.6267 39.9467 41.0933 40.4533L35.2267 46.32C27.68 42.48 21.4933 36.32 17.6533 28.7733L23.52 22.88C24.2667 22.16 24.48 21.12 24.1867 20.1867C23.2 17.2 22.6667 14 22.6667 10.6667C22.6667 9.2 21.4667 8 20 8H10.6667C9.2 8 8 9.2 8 10.6667C8 35.7067 28.2933 56 53.3333 56C54.8 56 56 54.8 56 53.3333V44C56 42.5333 54.8 41.3333 53.3333 41.3333ZM13.4133 13.3333H17.4133C17.6 15.68 18 18 18.64 20.24L15.44 23.4667C14.3467 20.24 13.6533 16.8533 13.4133 13.3333ZM50.6667 50.5867C47.1467 50.3467 43.7333 49.6533 40.5333 48.56L43.7333 45.36C46 46 48.32 46.4 50.6667 46.56V50.5867ZM32 8V34.6667L40 26.6667H56V8H32ZM50.6667 21.3333H37.3333V13.3333H50.6667V21.3333Z" fill="#285C47"/>
</svg>
