<svg width="64" height="64" viewBox="0 0 64 64" fill="none" xmlns="http://www.w3.org/2000/svg">
<path d="M32 31.9999C29.0667 31.9999 26.6667 29.5999 26.6667 26.6666C26.6667 23.7333 29.0667 21.3333 32 21.3333C34.9334 21.3333 37.3334 23.7333 37.3334 26.6666C37.3334 29.5999 34.9334 31.9999 32 31.9999ZM48 27.1999C48 17.5199 40.9334 10.6666 32 10.6666C23.0667 10.6666 16 17.5199 16 27.1999C16 33.4399 21.2 41.7066 32 51.5733C42.8 41.7066 48 33.4399 48 27.1999ZM32 5.33325C43.2 5.33325 53.3334 13.9199 53.3334 27.1999C53.3334 36.0533 46.2134 46.5333 32 58.6666C17.7867 46.5333 10.6667 36.0533 10.6667 27.1999C10.6667 13.9199 20.8 5.33325 32 5.33325Z" fill="#285C47"/>
</svg>
