<svg width="24" height="24" viewBox="0 0 24 24" fill="none" xmlns="http://www.w3.org/2000/svg">
<g clip-path="url(#clip0)">
<path d="M21.4288 0H2.57123C1.88936 0.000207729 1.23548 0.271171 0.753326 0.753326C0.271171 1.23548 0.000207729 1.88936 0 2.57123L0 21.428C0.000207729 22.1099 0.271171 22.7637 0.753326 23.2459C1.23548 23.728 1.88936 23.999 2.57123 23.9992H21.4288C22.1106 23.999 22.7645 23.728 23.2467 23.2459C23.7288 22.7637 23.9998 22.1099 24 21.428V2.57123C23.9998 1.88936 23.7288 1.23548 23.2467 0.753326C22.7645 0.271171 22.1106 0.000207729 21.4288 0V0ZM18.8082 8.50678C18.8191 8.65646 18.8191 8.81241 18.8191 8.96209C18.8282 10.2773 18.5758 11.5812 18.0767 12.7981C17.5776 14.015 16.8417 15.1206 15.9117 16.0506C14.9817 16.9807 13.8762 17.7167 12.6593 18.2159C11.4425 18.7151 10.1386 18.9676 8.82338 18.9586C6.91113 18.9627 5.03817 18.4159 3.42857 17.3834C3.70964 17.414 3.99222 17.4284 4.27494 17.4265C5.85551 17.4299 7.39128 16.9016 8.6353 15.9266C7.90226 15.9132 7.19172 15.6711 6.60301 15.2341C6.01429 14.7971 5.57681 14.1871 5.35171 13.4894C5.87877 13.5801 6.41909 13.5582 6.93708 13.4251C6.14235 13.2632 5.42809 12.8314 4.91545 12.2029C4.40281 11.5745 4.12335 10.788 4.12447 9.97695V9.93385C4.61024 10.2055 5.15364 10.3578 5.70984 10.3782C5.22742 10.058 4.83179 9.62334 4.55829 9.113C4.2848 8.60266 4.14195 8.03253 4.1425 7.45352C4.14029 6.82933 4.30652 6.21611 4.62367 5.6785C5.50572 6.76466 6.60638 7.65314 7.85417 8.28621C9.10195 8.91928 10.469 9.2828 11.8664 9.35314C11.6913 8.59904 11.7695 7.80825 12.0891 7.10313C12.4087 6.398 12.9518 5.81786 13.6343 5.45247C14.3168 5.08707 15.1007 4.9568 15.8647 5.08181C16.6287 5.20682 17.3302 5.58014 17.8607 6.144C18.6472 5.99364 19.4014 5.70722 20.0895 5.29763C19.8274 6.1085 19.2788 6.79608 18.5464 7.23174C19.2452 7.15177 19.9279 6.96683 20.5714 6.68317C20.0931 7.38805 19.4966 8.005 18.8082 8.50678V8.50678Z" fill="white"/>
</g>
<defs>
<clipPath id="clip0">
<rect width="24" height="24" fill="white"/>
</clipPath>
</defs>
</svg>
