<?xml version="1.0" encoding="utf-8"?>
<!-- Generator: Adobe Illustrator 25.2.3, SVG Export Plug-In . SVG Version: 6.00 Build 0)  -->
<svg version="1.1" id="Layer_1" xmlns="http://www.w3.org/2000/svg" xmlns:xlink="http://www.w3.org/1999/xlink" x="0px" y="0px"
	 viewBox="0 0 391.61 198.89" style="enable-background:new 0 0 391.61 198.89;" xml:space="preserve">
<style type="text/css">
	.st0{fill:#77CABA;}
	.st1{fill:#B2DDC7;}
	.st2{fill:#F7A49E;}
	.st3{fill:#D1AFD3;}
	.st4{fill:#49B77E;}
	.st5{fill:#124B32;}
	.st6{fill:#176A36;}
	.st7{clip-path:url(#SVGID_4_);}
	.st8{clip-path:url(#SVGID_7_);}
	.st9{fill:#FFFFFF;}
	.st10{clip-path:url(#SVGID_10_);}
	.st11{fill:none;stroke:#FFFFFF;stroke-width:7;stroke-miterlimit:10;}
	.st12{fill:none;stroke:#176A36;stroke-linecap:round;stroke-linejoin:round;stroke-miterlimit:10;}
</style>
<g>
	<g>
		<g>
			<defs>
				<path id="SVGID_1_" d="M352.89,163.31l-101.14,22.22c-36.36,7.99-75.52,7.99-111.88,0L38.73,163.31
					c-12.32-2.71-21.12-10.08-22.44-18.8l-2.97-19.64C9.61,100.3,7.75,75.63,7.75,50.95V31.28c0-8.05,8.92-14.82,20.74-15.73
					l46-3.55c80.62-6.22,162.03-6.22,242.65,0l46,3.55c11.81,0.91,20.74,7.68,20.74,15.73v19.67c0,24.69-1.86,49.36-5.57,73.92
					l-2.97,19.64C374,153.23,365.2,160.6,352.89,163.31z"/>
			</defs>
			<clipPath id="SVGID_2_">
				<use xlink:href="#SVGID_1_"  style="overflow:visible;"/>
			</clipPath>
		</g>
		<g>
			<path class="st5" d="M363.52,10.51l-46-3.55c-80.77-6.22-162.67-6.22-243.44,0l-46,3.55c-14.48,1.11-25.4,10.05-25.4,20.77v19.67
				c0,24.84,1.89,49.95,5.63,74.68l2.97,19.64c1.63,10.8,11.97,19.83,26.34,22.98l101.15,22.23c18.66,4.09,37.84,6.14,57.01,6.14
				c19.19,0,38.39-2.05,57.03-6.14l101.15-22.23c14.37-3.15,24.71-12.17,26.34-22.98l2.97-19.64c3.74-24.71,5.63-49.84,5.63-74.68
				V31.28C388.93,20.56,377.99,11.62,363.52,10.51z M378.82,50.95c0,24.33-1.86,48.96-5.52,73.16l-2.97,19.64
				c-0.98,6.53-8.43,12.41-18.53,14.63l-101.13,22.21c-35.89,7.89-73.82,7.89-109.71,0L39.82,158.38
				c-10.09-2.22-17.55-8.1-18.53-14.63l-2.97-19.64c-3.65-24.22-5.52-48.83-5.52-73.16V31.28c0-5.21,7.21-10.01,16.07-10.69l46-3.55
				c40.13-3.09,80.53-4.65,120.93-4.65c40.41,0,80.81,1.56,120.95,4.65l46,3.55c8.85,0.68,16.07,5.47,16.07,10.69V50.95z"/>
		</g>
	</g>
	<g>
		<g>
			<path class="st5" d="M59.5,80.83c0.09,1.21-0.42,1.79-1.65,1.86c-2.44,0.16-4.9,0.33-7.35,0.49c-1.21,0.09-1.79-0.4-1.88-1.63
				c-0.14-2.01-0.27-4.01-0.42-6.02c-3.03-3.18-6.08-6.35-9.14-9.52c0.39,5.39,0.78,10.76,1.18,16.13c0.09,1.23-0.42,1.81-1.63,1.89
				c-2.46,0.19-4.9,0.38-7.35,0.56c-1.21,0.09-1.81-0.4-1.89-1.63c-0.84-10.54-1.66-21.1-2.5-31.66c-0.1-1.23,0.4-1.81,1.66-1.91
				c1.72-0.13,3.44-0.26,5.17-0.39c1.29-0.1,2.11,0.19,3.03,1.1c3.48,3.38,6.95,6.77,10.4,10.17c-0.23-3.47-0.48-6.95-0.72-10.41
				c-0.09-1.23,0.43-1.81,1.68-1.89c2.48-0.17,4.97-0.33,7.47-0.49c1.24-0.09,1.82,0.42,1.91,1.65
				C58.14,59.69,58.82,70.26,59.5,80.83z"/>
		</g>
		<g>
			<path class="st5" d="M81.32,82.05c-12.15,0.66-15.38-3.13-15.76-9.11c-0.49-8.07-0.98-16.15-1.49-24.22
				c-0.07-1.23,0.45-1.79,1.69-1.88c2.6-0.16,5.21-0.3,7.81-0.45c1.26-0.07,1.83,0.43,1.89,1.66c0.42,7.44,0.84,14.87,1.26,22.31
				c0.07,1.31,0.72,2.27,4.17,2.08c3.49-0.19,4.03-1.2,3.96-2.51c-0.39-7.45-0.78-14.89-1.17-22.33c-0.06-1.23,0.4-1.79,1.7-1.86
				c2.53-0.12,5.05-0.25,7.58-0.36c1.24-0.07,1.82,0.45,1.88,1.68c0.38,8.07,0.75,16.16,1.14,24.23
				C96.26,77.27,93.46,81.4,81.32,82.05z"/>
		</g>
		<g>
			<path class="st5" d="M129.51,51.63c0.03,1.23-0.49,1.79-1.73,1.82c-2.44,0.09-4.87,0.16-7.31,0.25
				c0.29,8.01,0.58,16.04,0.85,24.06c0.04,1.21-0.48,1.78-1.7,1.82c-2.64,0.1-5.3,0.2-7.94,0.3c-1.23,0.04-1.79-0.46-1.83-1.69
				c-0.33-8.02-0.65-16.03-0.98-24.05c-2.43,0.09-4.87,0.2-7.29,0.3c-1.24,0.06-1.82-0.46-1.86-1.69c-0.1-1.96-0.19-3.94-0.27-5.92
				c-0.06-1.23,0.46-1.79,1.72-1.83c8.77-0.39,17.55-0.72,26.33-1.01c1.24-0.03,1.81,0.49,1.85,1.72
				C129.38,47.69,129.44,49.65,129.51,51.63z"/>
		</g>
		<g>
			<path class="st5" d="M165.91,66.26c-0.06-4.12-2.47-6.69-6.09-7.02c2.07-0.91,2.73-2.89,2.69-5.63c-0.01-0.75-0.03-1.5-0.04-2.25
				c-0.07-4.85-2.47-8.16-9.95-8.02c-5.55,0.12-11.08,0.25-16.61,0.4c-1.26,0.04-1.79,0.59-1.75,1.82
				c0.3,10.59,0.61,21.16,0.91,31.74c0.03,1.23,0.59,1.75,1.82,1.72c2.51-0.07,5.04-0.13,7.55-0.2c1.23-0.03,1.75-0.58,1.73-1.81
				c-0.09-3.21-0.16-6.4-0.23-9.6c2.3-0.06,4.61-0.1,6.9-0.14c1.39-0.03,1.89,0.59,1.92,2.07c0.04,2.5,0.09,5,0.14,7.5
				c0.01,1.23,0.58,1.76,1.81,1.73c2.53-0.04,5.07-0.09,7.6-0.13c1.23-0.01,1.76-0.56,1.75-1.79
				C166,73.18,165.96,69.73,165.91,66.26z M151.55,54.49c0.01,0.56,0.01,1.11,0.03,1.68c0.03,1.31-0.39,2.31-2.12,2.34
				c-1.24,0.03-2.48,0.06-3.73,0.09c-0.04-2.08-0.09-4.17-0.14-6.27c1.24-0.03,2.48-0.06,3.73-0.09
				C151.05,52.21,151.52,53.18,151.55,54.49z"/>
		</g>
		<g>
			<path class="st5" d="M195.23,70.6v5.83c0,1.23-0.53,1.78-1.76,1.78c-6.96,0-13.94,0.04-20.91,0.13
				c-1.23,0.01-1.76-0.52-1.78-1.75c-0.03-1.95-0.06-3.88-0.07-5.83c-0.01-1.23,0.52-1.78,1.75-1.79c1.63-0.01,3.25-0.03,4.88-0.04
				c-0.04-5.49-0.1-10.98-0.14-16.46c-1.65,0.01-3.28,0.03-4.92,0.04c-1.24,0.01-1.79-0.52-1.81-1.75
				c-0.03-1.98-0.04-3.94-0.07-5.92c-0.01-1.23,0.53-1.78,1.78-1.79c7.09-0.07,14.17-0.13,21.26-0.13c1.24,0,1.79,0.53,1.79,1.76
				v5.94c0,1.21-0.53,1.76-1.78,1.76c-1.62,0-3.22,0-4.82,0.01c0.01,5.49,0.04,10.98,0.06,16.46c1.59,0,3.19-0.01,4.78-0.01
				C194.7,68.83,195.23,69.38,195.23,70.6z"/>
		</g>
		<g>
			<path class="st5" d="M212.1,54.87c-0.03,3.9-0.06,7.78-0.09,11.67c-0.01,1.62,0.92,2.37,2.99,2.38c3.31,0.03,6.61,0.06,9.91,0.1
				c1.24,0.03,1.78,0.56,1.75,1.79c-0.03,1.95-0.04,3.88-0.07,5.83c-0.03,1.23-0.58,1.76-1.79,1.75c-4-0.06-7.99-0.1-11.99-0.13
				c-8.23-0.06-12.06-3.25-12.04-10.07c0-5.07,0.01-10.15,0.03-15.24c0.01-6.86,3.91-10.05,12.29-9.99
				c4.06,0.03,8.12,0.07,12.17,0.13c1.26,0.01,1.79,0.56,1.78,1.79c-0.03,1.98-0.06,3.96-0.09,5.94c-0.01,1.21-0.58,1.75-1.82,1.73
				c-3.32-0.04-6.64-0.09-9.98-0.12C213.07,52.43,212.11,53.21,212.1,54.87z"/>
		</g>
		<g>
			<path class="st5" d="M247.42,42.77c-12.48-0.27-15.58,3.77-15.68,9.75c-0.09,5.56-0.17,11.13-0.27,16.71
				c-0.09,5.98,2.85,10.02,15.09,10.3c12.26,0.3,15.32-3.6,15.51-9.57c0.17-5.57,0.35-11.13,0.52-16.71
				C262.77,47.27,259.91,43.07,247.42,42.77z M251.32,54.68c-0.12,4.39-0.23,8.79-0.35,13.19c-0.03,1.33-0.59,2.28-4.19,2.2
				c-3.55-0.07-4.13-1.07-4.1-2.4c0.1-4.39,0.2-8.78,0.29-13.17c0.03-1.29,0.65-2.25,4.23-2.17
				C250.83,52.41,251.35,53.41,251.32,54.68z"/>
		</g>
		<g>
			<path class="st5" d="M299.79,47.14c-0.51,10.57-1.03,21.14-1.53,31.73c-0.06,1.23-0.62,1.73-1.85,1.68
				c-2.44-0.12-4.9-0.23-7.35-0.33c-1.23-0.06-1.75-0.62-1.69-1.83c0.09-2.01,0.17-4.01,0.26-6.02c-2.66-3.51-5.33-7-8.03-10.48
				c-0.2,5.39-0.42,10.77-0.62,16.16c-0.04,1.23-0.61,1.75-1.83,1.69c-2.46-0.09-4.91-0.17-7.35-0.26
				c-1.23-0.04-1.75-0.59-1.72-1.82c0.36-10.59,0.72-21.17,1.07-31.74c0.04-1.23,0.62-1.75,1.86-1.7c1.73,0.06,3.45,0.12,5.18,0.17
				c1.3,0.06,2.08,0.43,2.89,1.44c3.09,3.74,6.15,7.5,9.2,11.26c0.14-3.48,0.3-6.96,0.45-10.44c0.06-1.23,0.62-1.73,1.88-1.68
				c2.48,0.1,4.98,0.22,7.47,0.33C299.33,45.35,299.85,45.91,299.79,47.14z"/>
		</g>
		<g>
			<path class="st5" d="M333.33,49.01c-0.12,1.91-0.25,3.81-0.36,5.72c-0.09,1.23-0.66,1.73-1.91,1.65
				c-4.55-0.27-9.11-0.55-13.68-0.81c-0.07,1.26-0.14,2.51-0.22,3.77c3.22,0.19,6.44,0.38,9.65,0.56c1.24,0.07,1.76,0.65,1.68,1.88
				c-0.1,1.75-0.22,3.48-0.32,5.23c-0.07,1.23-0.65,1.73-1.88,1.66c-3.21-0.2-6.41-0.39-9.62-0.56c-0.09,1.4-0.16,2.8-0.25,4.2
				c4.53,0.26,9.05,0.52,13.59,0.81c1.23,0.07,1.73,0.65,1.66,1.88c-0.13,1.91-0.25,3.81-0.36,5.72c-0.09,1.23-0.65,1.73-1.88,1.65
				c-7.58-0.48-15.16-0.91-22.75-1.3c-1.21-0.06-1.73-0.62-1.68-1.85c0.55-10.57,1.08-21.14,1.63-31.73
				c0.06-1.21,0.64-1.73,1.88-1.66c7.71,0.39,15.41,0.84,23.12,1.31C332.9,47.21,333.41,47.78,333.33,49.01z"/>
		</g>
		<g>
			<path class="st5" d="M364.56,71.03c-0.13,1.7-0.27,3.42-0.4,5.13c-0.45,5.57-4.49,8.29-10.8,7.83
				c-5.16-0.38-10.33-0.74-15.48-1.08c-1.21-0.09-1.72-0.65-1.65-1.88c0.13-1.91,0.26-3.81,0.38-5.72c0.09-1.23,0.66-1.73,1.89-1.65
				c4.4,0.29,8.82,0.59,13.23,0.92c0.84,0.06,1.33-0.55,1.39-1.33c0.07-1.13-0.33-1.6-1.17-1.76c-2.43-0.52-4.87-1.04-7.31-1.55
				c-4.58-1.01-7.47-3.16-7.11-8.64c0.12-1.72,0.23-3.42,0.33-5.14c0.38-5.57,4.4-8.36,10.87-7.9c4.65,0.33,9.3,0.66,13.94,1.03
				c1.24,0.1,1.75,0.68,1.66,1.89c-0.16,1.95-0.3,3.88-0.46,5.82c-0.09,1.23-0.68,1.72-1.92,1.62c-3.84-0.29-7.7-0.58-11.54-0.85
				c-0.85-0.06-1.39,0.49-1.44,1.37c-0.06,0.88,0.39,1.5,1.23,1.66c2.43,0.51,4.87,1.01,7.29,1.52
				C362.07,63.36,364.99,65.56,364.56,71.03z"/>
		</g>
	</g>
	<g>
		<g>
			<path class="st6" d="M152.24,156.19v-9.66h9.66v0.83h-8.61v3.36h7.21v0.85h-7.21v3.78h8.61v0.85H152.24z"/>
		</g>
		<g>
			<path class="st6" d="M173.25,147.76c-1.11-0.45-2.94-0.59-4.49-0.59c-1.35,0-3.93,0.09-3.93,1.68c0,3.08,9.02,0.33,9.02,4.68
				c0,2.41-2.79,2.84-5.13,2.84c-1.71,0-3.72-0.23-5.16-0.68l0.03-0.87c1.49,0.52,3.57,0.71,5.16,0.71c1.85,0,4.12-0.28,4.12-1.94
				c0-3.36-9.02-0.52-9.02-4.66c0-2.36,2.98-2.58,4.87-2.58c1.94,0,3.55,0.23,4.56,0.61L173.25,147.76z"/>
		</g>
		<g>
			<path class="st6" d="M179.74,156.19v-8.82h-4.92v-0.85h10.88v0.85h-4.92v8.82H179.74z"/>
		</g>
		<g>
			<path class="st6" d="M187.66,156.19v-9.66h6.1c3.9,0,5.98,2.08,5.98,4.83c0,2.77-2.08,4.83-5.98,4.83H187.66z M193.77,155.35
				c3.08,0,4.87-1.66,4.87-3.98c0-2.3-1.78-3.98-4.87-3.98h-5.07v7.97H193.77z"/>
		</g>
		<g>
			<path class="st6" d="M201.04,155.68c0-0.4,0.31-0.68,0.69-0.68c0.36,0,0.69,0.29,0.69,0.64c0,0.4-0.33,0.69-0.69,0.69
				C201.35,156.33,201.04,156.02,201.04,155.68z"/>
		</g>
		<g>
			<path class="st6" d="M209.46,156.19v-0.81c5.08-2.53,7.15-3.69,7.15-5.89c0-1.85-1.42-2.3-3-2.3c-1.27,0-2.72,0.28-3.62,0.66
				l-0.05-0.8c0.87-0.35,2.34-0.69,3.72-0.69c2.23,0,4.02,0.76,4.02,3.14c0,2.41-1.96,3.71-6.67,5.89h6.96v0.81H209.46z"/>
		</g>
		<g>
			<path class="st6" d="M224.73,156.37c-2.43,0-4.9-1.58-4.9-5.01c0-3.43,2.46-5.01,4.9-5.01c2.42,0,4.92,1.58,4.92,5.01
				C229.65,154.79,227.15,156.37,224.73,156.37z M224.73,155.57c1.92,0,3.83-1.32,3.83-4.21c0-2.88-1.92-4.19-3.84-4.19
				c-1.89,0-3.79,1.3-3.79,4.19C220.92,154.26,222.82,155.57,224.73,155.57z"/>
		</g>
		<g>
			<path class="st6" d="M233.46,156.19v-8.45l-1.94,2.01l-0.61-0.57l2.58-2.65h1v9.66H233.46z"/>
		</g>
		<g>
			<path class="st6" d="M238.71,156.19v-8.45l-1.94,2.01l-0.61-0.57l2.58-2.65h1v9.66H238.71z"/>
		</g>
	</g>
	<g>
		<g>
			<path class="st6" d="M94.8,122.69v-19.06h3.89v19.06H94.8z"/>
		</g>
		<g>
			<path class="st6" d="M126.87,121.19c-2.7,1.33-6.15,1.84-9.39,1.84c-8.57,0-14.04-3.96-14.04-9.84c0-5.87,5.43-9.9,13.94-9.9
				c3.14,0,6.73,0.48,9.49,1.84v3.38c-1.74-0.82-4.95-1.98-9.26-1.98c-6.66,0-10.01,2.94-10.01,6.63c0,3.65,3.28,6.59,10.08,6.59
				c4.47,0,7.79-1.23,9.19-1.91V121.19z"/>
		</g>
		<g>
			<path class="st6" d="M131.72,122.69v-19.06h19.3v3.24h-15.37v4.37h12.71v3.28h-12.71v4.88h15.37v3.28H131.72z"/>
		</g>
		<g>
			<path class="st6" d="M187.55,121.19c-2.7,1.33-6.15,1.84-9.39,1.84c-8.57,0-14.04-3.96-14.04-9.84c0-5.87,5.43-9.9,13.94-9.9
				c3.14,0,6.73,0.48,9.49,1.84v3.38c-1.74-0.82-4.95-1.98-9.26-1.98c-6.66,0-10.01,2.94-10.01,6.63c0,3.65,3.28,6.59,10.08,6.59
				c4.47,0,7.79-1.23,9.19-1.91V121.19z"/>
		</g>
		<g>
			<path class="st6" d="M208.35,122.69l-4.68-6.56h-7.38v6.56h-3.89v-19.06h13.08c4.92,0,7.07,3.31,7.07,6.25
				c0,2.36-1.54,4.71-4.71,5.74l4.99,7.07H208.35z M196.29,106.91v5.94h8.27c2.87,0,3.93-1.37,3.93-2.97c0-1.57-1.06-2.97-3.93-2.97
				H196.29z"/>
		</g>
		<g>
			<path class="st6" d="M217.53,122.69v-19.06h19.3v3.24h-15.37v4.37h12.71v3.28h-12.71v4.88h15.37v3.28H217.53z"/>
		</g>
		<g>
			<path class="st6" d="M257.21,118.87h-11.89l-2.43,3.83h-4.34l12.71-19.4l12.71,19.4h-4.34L257.21,118.87z M247.41,115.55h7.68
				l-3.82-6.05L247.41,115.55z"/>
		</g>
		<g>
			<path class="st6" d="M295.53,122.69l-4.44-12.06l-8.98,12.4l-8.95-12.4l-4.44,12.06h-4.17l7.65-19.4l9.9,13.66l9.94-13.66
				l7.65,19.4H295.53z"/>
		</g>
	</g>
	<g>
		<path class="st6" d="M363.43,113.88h-56.54c-0.4,0-0.72-0.32-0.72-0.72s0.32-0.72,0.72-0.72h56.54c0.4,0,0.72,0.32,0.72,0.72
			S363.83,113.88,363.43,113.88z"/>
	</g>
	<g>
		<path class="st6" d="M86.09,113.88H29.55c-0.4,0-0.72-0.32-0.72-0.72s0.32-0.72,0.72-0.72h56.54c0.4,0,0.72,0.32,0.72,0.72
			S86.49,113.88,86.09,113.88z"/>
	</g>
</g>
</svg>
